<svg id="Layer_1" data-name="Layer 1" xmlns="http://www.w3.org/2000/svg" xmlns:xlink="http://www.w3.org/1999/xlink" viewBox="0 0 504.96 502.29"><defs><style>.cls-1{fill:#722382;}.cls-2{fill:#86339a;}.cls-3{fill:url(#linear-gradient);}</style><linearGradient id="linear-gradient" x1="409.6" y1="261.36" x2="648.52" y2="261.36" gradientUnits="userSpaceOnUse"><stop offset="0" stop-color="#86339a"/><stop offset="1" stop-color="#722382"/></linearGradient></defs><title>Jama_Services_symbol_gradient_w</title><path class="cls-1" d="M608.11,556.84V537.37h-6.78V534h17.89l-.38,3.42H612.3v19.47Zm36.52,0v-20h-.3L637.4,557h-5.32l-6.93-20.16h-.3v20H621V534h7.46l6.31,19.4,6.32-19.4h7.46v22.89Z" transform="translate(-143.55 -54.7)"/><path class="cls-2" d="M278.33,113.58a4.71,4.71,0,0,0-2.29,4.07l-.44,74.55c.63,85.61-58.21,112.94-128.24,152.82-2.62,1.5-3.68,4.26-3.68,7.27V366a2.69,2.69,0,0,0,4,2.34c86.23-49,148.9-77,148.13-182.54l.37-78.22a2.69,2.69,0,0,0-4.07-2.28Z" transform="translate(-143.55 -54.7)"/><path class="cls-2" d="M143.56,464.8c0,2,3.21,3.94,5,2.94,114.27-65.12,184.51-101.86,213.51-168.18,14.92-34.12,20.36-64.47,20.1-100.72l0-140.17a4,4,0,0,0-6-3.4L364,62.47a4,4,0,0,0-1.92,3.42L361.91,199c.26,34.43-6.19,65.3-18,92.26-27.19,62.17-98,96.27-196.55,153.78a7.56,7.56,0,0,0-3.83,6.58Z" transform="translate(-143.55 -54.7)"/><path class="cls-2" d="M143.68,415.77V401.51a7.58,7.58,0,0,1,3.82-6.58C244,340,286.8,316.84,307.21,261.62c12.39-33.54,12.46-56.49,11.63-169.45A4.81,4.81,0,0,1,321.17,88L335,79.77a2.69,2.69,0,0,1,4.07,2.29c-.22,115.85,2.93,143.73-12.9,186.57-25,67.65-82.38,94.23-178.49,149.48A2.69,2.69,0,0,1,143.68,415.77Z" transform="translate(-143.55 -54.7)"/><path class="cls-1" d="M632.07,500l-99.26,56.21a4.72,4.72,0,0,1-4.67,0l-59.22-33.9c-53.61-30.68-97.91-26.87-144.84-.08l-59.26,33.82a4.72,4.72,0,0,1-4.67,0c-1.44-.83-98-55.67-98.69-56a4,4,0,0,1,0-6.92C290.84,419.44,328.85,389.51,396.57,390h0c68.28-.43,109,30.85,235.48,103.07A4,4,0,0,1,632.07,500Z" transform="translate(-143.55 -54.7)"/><path class="cls-3" d="M648.39,352.29c0-3-1.06-5.78-3.68-7.27-44.34-25.25-84.19-45.47-107.3-78.64-24.93-35.77-20.88-64.72-21.38-149.22a4.7,4.7,0,0,0-2.29-4.07L416,55.27a4,4,0,0,0-6,3.39c0,161.42-4.64,184.42,20.06,240.9,29,66.32,99.24,103.06,213.51,168.18,1.77,1,5-.9,5-2.94Z" transform="translate(-143.55 -54.7)"/></svg>